<svg width="24" height="27" viewBox="0 0 24 27" fill="none" xmlns="http://www.w3.org/2000/svg">
<path fill-rule="evenodd" clip-rule="evenodd" d="M8 4C8 3.46957 8.21071 2.96086 8.58579 2.58579C8.96086 2.21071 9.46957 2 10 2H15.586C16.1164 2.00011 16.625 2.2109 17 2.586L20.414 6C20.7891 6.37499 20.9999 6.88361 21 7.414V16C21 16.5304 20.7893 17.0391 20.4142 17.4142C20.0391 17.7893 19.5304 18 19 18H17V20C17 20.5304 16.7893 21.0391 16.4142 21.4142C16.0391 21.7893 15.5304 22 15 22H6C5.46957 22 4.96086 21.7893 4.58579 21.4142C4.21071 21.0391 4 20.5304 4 20V8C4 7.46957 4.21071 6.96086 4.58579 6.58579C4.96086 6.21071 5.46957 6 6 6H8V4ZM19 16H10V4H14V7.5C14 7.89782 14.158 8.27936 14.4393 8.56066C14.7206 8.84196 15.1022 9 15.5 9H19V16ZM18.586 7H16V4.414L18.586 7ZM8 16V8H6V20H15V18H10C9.46957 18 8.96086 17.7893 8.58579 17.4142C8.21071 17.0391 8 16.5304 8 16Z" fill="#F0F0F0"/>
<path d="M9.54928 19.8971L10.2605 19.2277L9.54928 19.8971C9.90915 20.2795 10.4107 20.5066 10.9474 20.5066H14.0526V23.8684C14.0526 24.3817 14.244 24.8852 14.6019 25.2655C14.9618 25.6479 15.4633 25.875 16 25.875C16.5367 25.875 17.0382 25.6479 17.3981 25.2655C17.756 24.8852 17.9474 24.3817 17.9474 23.8684V20.5066H21.0526C21.5893 20.5066 22.0908 20.2795 22.4507 19.8971C22.8087 19.5168 23 19.0133 23 18.5C23 17.9867 22.8087 17.4832 22.4507 17.1029C22.0908 16.7205 21.5893 16.4934 21.0526 16.4934H17.9474V13.1316C17.9474 12.6183 17.756 12.1148 17.3981 11.7345C17.0382 11.3521 16.5367 11.125 16 11.125C15.4633 11.125 14.9618 11.3521 14.6019 11.7345C14.244 12.1148 14.0526 12.6183 14.0526 13.1316V16.4934H10.9474C10.4107 16.4934 9.90915 16.7205 9.54928 17.1029L10.2605 17.7723L9.54928 17.1029C9.19134 17.4832 9 17.9867 9 18.5C9 19.0133 9.19134 19.5168 9.54928 19.8971Z" fill="#F0F0F0" stroke="#171717" stroke-width="2"/>
<clipPath id="clip0_648_948">
<rect width="24" height="27" fill="white"/>
</clipPath>
</svg>
