<svg width="20" height="20" viewBox="0 0 20 20" fill="none" xmlns="http://www.w3.org/2000/svg">
<g clip-path="url(#clip0_688_670)">
<path fill-rule="evenodd" clip-rule="evenodd" d="M2.5 3.33333C2.5 2.8913 2.67559 2.46738 2.98816 2.15482C3.30072 1.84226 3.72464 1.66667 4.16667 1.66667H5.83333C6.13667 1.66667 6.42167 1.7475 6.66667 1.89C6.91988 1.74334 7.20738 1.66628 7.5 1.66667H9.16667C9.7725 1.66667 10.3033 1.99 10.595 2.47417C10.77 2.33417 10.975 2.2275 11.205 2.16583L12.815 1.735C13.0264 1.67828 13.247 1.66378 13.464 1.6923C13.681 1.72083 13.8903 1.79183 14.0799 1.90125C14.2695 2.01067 14.4357 2.15637 14.569 2.33003C14.7022 2.50368 14.8 2.70189 14.8567 2.91333L18.3067 15.7925C18.3634 16.0039 18.3779 16.2245 18.3494 16.4415C18.3208 16.6585 18.2498 16.8678 18.1404 17.0574C18.031 17.247 17.8853 17.4132 17.7116 17.5465C17.538 17.6797 17.3398 17.7775 17.1283 17.8342L15.5183 18.265C15.3069 18.3217 15.0864 18.3362 14.8693 18.3077C14.6523 18.2792 14.443 18.2082 14.2534 18.0987C14.0638 17.9893 13.8976 17.8436 13.7644 17.67C13.6311 17.4963 13.5333 17.2981 13.4767 17.0867L10.8333 7.21917V16.6667C10.8333 17.1087 10.6577 17.5326 10.3452 17.8452C10.0326 18.1577 9.60869 18.3333 9.16667 18.3333H7.5C7.20738 18.3337 6.91988 18.2567 6.66667 18.11C6.41346 18.2567 6.12595 18.3337 5.83333 18.3333H4.16667C3.72464 18.3333 3.30072 18.1577 2.98816 17.8452C2.67559 17.5326 2.5 17.1087 2.5 16.6667V3.33333ZM4.16667 3.33333H5.83333V16.6667H4.16667V3.33333ZM9.16667 16.6667H7.5V3.33333H9.16667V16.6667ZM11.6358 3.77583L13.2458 3.345L16.6975 16.2242L15.0875 16.655L11.6358 3.77583Z" fill="#F0F0F0"/>
</g>
<defs>
<clipPath id="clip0_688_670">
<rect width="20" height="20" fill="white"/>
</clipPath>
</defs>
</svg>
