<svg width="9" height="1659" viewBox="0 0 9 1659" fill="none" xmlns="http://www.w3.org/2000/svg">
<circle cx="4.5" cy="4.5" r="4.5" fill="#313131"/>
<rect x="4" y="16" width="1" height="15" fill="#313131"/>
<rect x="4" y="38" width="1" height="15" fill="#313131"/>
<rect x="4" y="60" width="1" height="15" fill="#313131"/>
<rect x="4" y="82" width="1" height="15" fill="#313131"/>
<rect x="4" y="104" width="1" height="15" fill="#313131"/>
<rect x="4" y="126" width="1" height="15" fill="#313131"/>
<rect x="4" y="148" width="1" height="15" fill="#313131"/>
<rect x="4" y="170" width="1" height="15" fill="#313131"/>
<rect x="4" y="192" width="1" height="15" fill="#313131"/>
<rect x="4" y="214" width="1" height="15" fill="#313131"/>
<rect x="4" y="236" width="1" height="15" fill="#313131"/>
<rect x="4" y="258" width="1" height="15" fill="#313131"/>
<rect x="4" y="280" width="1" height="15" fill="#313131"/>
<rect x="4" y="302" width="1" height="15" fill="#313131"/>
<rect x="4" y="324" width="1" height="15" fill="#313131"/>
<rect x="4" y="346" width="1" height="15" fill="#313131"/>
<rect x="4" y="368" width="1" height="15" fill="#313131"/>
<rect x="4" y="390" width="1" height="15" fill="#313131"/>
<rect x="4" y="412" width="1" height="15" fill="#313131"/>
<rect x="4" y="434" width="1" height="15" fill="#313131"/>
<rect x="4" y="456" width="1" height="15" fill="#313131"/>
<rect x="4" y="478" width="1" height="15" fill="#313131"/>
<rect x="4" y="500" width="1" height="15" fill="#313131"/>
<rect x="4" y="522" width="1" height="15" fill="#313131"/>
<rect x="4" y="544" width="1" height="15" fill="#313131"/>
<rect x="4" y="566" width="1" height="15" fill="#313131"/>
<rect x="4" y="588" width="1" height="15" fill="#313131"/>
<rect x="4" y="610" width="1" height="15" fill="#313131"/>
<rect x="4" y="632" width="1" height="15" fill="#313131"/>
<rect x="4" y="654" width="1" height="15" fill="#313131"/>
<rect x="4" y="676" width="1" height="15" fill="#313131"/>
<rect x="4" y="698" width="1" height="15" fill="#313131"/>
<rect x="4" y="720" width="1" height="15" fill="#313131"/>
<rect x="4" y="742" width="1" height="15" fill="#313131"/>
<rect x="4" y="764" width="1" height="15" fill="#313131"/>
<rect x="4" y="786" width="1" height="15" fill="#313131"/>
<rect x="4" y="808" width="1" height="15" fill="#313131"/>
<rect x="4" y="830" width="1" height="15" fill="#313131"/>
<rect x="4" y="852" width="1" height="15" fill="#313131"/>
<rect x="4" y="874" width="1" height="15" fill="#313131"/>
<rect x="4" y="896" width="1" height="15" fill="#313131"/>
<rect x="4" y="918" width="1" height="15" fill="#313131"/>
<rect x="4" y="940" width="1" height="15" fill="#313131"/>
<rect x="4" y="962" width="1" height="15" fill="#313131"/>
<rect x="4" y="984" width="1" height="15" fill="#313131"/>
<rect x="4" y="1006" width="1" height="15" fill="#313131"/>
<rect x="4" y="1028" width="1" height="15" fill="#313131"/>
<rect x="4" y="1050" width="1" height="15" fill="#313131"/>
<rect x="4" y="1072" width="1" height="15" fill="#313131"/>
<rect x="4" y="1094" width="1" height="15" fill="#313131"/>
<rect x="4" y="1116" width="1" height="15" fill="#313131"/>
<rect x="4" y="1138" width="1" height="15" fill="#313131"/>
<rect x="4" y="1160" width="1" height="15" fill="#313131"/>
<rect x="4" y="1182" width="1" height="15" fill="#313131"/>
<rect x="4" y="1204" width="1" height="15" fill="#313131"/>
<rect x="4" y="1226" width="1" height="15" fill="#313131"/>
<rect x="4" y="1248" width="1" height="15" fill="#313131"/>
<rect x="4" y="1270" width="1" height="15" fill="#313131"/>
<rect x="4" y="1292" width="1" height="15" fill="#313131"/>
<rect x="4" y="1314" width="1" height="15" fill="#313131"/>
<rect x="4" y="1336" width="1" height="15" fill="#313131"/>
<rect x="4" y="1358" width="1" height="15" fill="#313131"/>
<rect x="4" y="1380" width="1" height="15" fill="#313131"/>
<rect x="4" y="1402" width="1" height="15" fill="#313131"/>
<rect x="4" y="1424" width="1" height="15" fill="#313131"/>
<rect x="4" y="1446" width="1" height="15" fill="#313131"/>
<rect x="4" y="1468" width="1" height="15" fill="#313131"/>
<rect x="4" y="1490" width="1" height="15" fill="#313131"/>
<rect x="4" y="1512" width="1" height="15" fill="#313131"/>
<rect x="4" y="1534" width="1" height="15" fill="#313131"/>
<rect x="4" y="1556" width="1" height="15" fill="#313131"/>
<rect x="4" y="1578" width="1" height="15" fill="#313131"/>
<rect x="4" y="1600" width="1" height="15" fill="#313131"/>
<rect x="4" y="1622" width="1" height="15" fill="#313131"/>
<rect x="4" y="1644" width="1" height="15" fill="#313131"/>
</svg>
