<svg width="393" height="393" viewBox="0 0 393 393" fill="none" xmlns="http://www.w3.org/2000/svg">
<path fill-rule="evenodd" clip-rule="evenodd" d="M220.479 210.097L220.284 155.424L223.903 163.551L223.907 163.548L236.08 190.969L236.096 190.927L247.974 217.596H294.461V157.594C294.461 144.669 290.889 135.281 283.746 129.43C276.671 123.58 267.181 120.654 255.276 120.654C245.344 120.654 237.52 122.355 231.806 125.757C226.16 129.09 222.384 132.968 220.479 137.39V73H162.812V137.875C160.304 134.982 157.318 132.473 153.853 130.349C142.424 123.274 126.437 119.736 105.892 119.736C85.5514 119.736 69.4285 124.056 57.5234 132.696C45.6183 141.335 39.6658 153.24 39.6658 168.411V171.88C39.6658 186.915 45.7204 198.752 57.8296 207.392C69.9387 216.031 86.1297 220.351 106.402 220.351C127.219 220.351 143.342 217.018 154.771 210.351C157.849 208.537 160.529 206.438 162.812 204.052V217.596V240.434C160.719 237.915 158.277 235.574 155.485 233.413C144.329 224.705 128.58 220.351 108.239 220.351C87.1501 220.351 70.449 224.671 58.1357 233.311C45.8224 241.882 39.6658 253.719 39.6658 268.822V272.087C39.6658 287.462 45.7544 299.435 57.9316 308.007C70.1088 316.51 87.2181 320.762 109.26 320.762C127.491 320.762 141.471 317.871 151.2 312.089C155.653 309.41 159.5 306.034 162.742 301.959L116.143 281.725C114.335 282.715 111.938 283.21 108.953 283.21C105.28 283.21 102.457 282.462 100.484 280.965C98.9153 279.733 97.9926 277.624 97.7157 274.638H162.812V275L162.837 275V302L162.812 301.989V318.585H220.479V252.96L249.337 318.585H311.38L351.687 224.603H300.359L286.991 256.237C286.651 256.985 286.277 258.039 285.869 259.4C285.461 260.692 285.086 262.461 284.746 264.706H284.338C283.998 262.461 283.624 260.692 283.216 259.4C282.807 258.039 282.433 256.985 282.093 256.237L269.848 224.603H220.479V217.596V210.097ZM162.812 175.146V173.989V166.88H116.913V165.86C116.913 163.615 116.199 161.812 114.77 160.451C113.409 159.091 111.198 158.411 108.137 158.411C104.872 158.411 102.423 159.091 100.79 160.451C99.1573 161.744 98.3409 163.615 98.3409 166.064V173.921C98.3409 176.915 99.1233 179.057 100.688 180.35C102.253 181.643 104.736 182.289 108.137 182.289C111.334 182.289 113.579 181.711 114.872 180.554C114.922 180.51 114.971 180.465 115.019 180.42L162.812 201.926V175.146H162.812ZM116.505 265.659H97.6807C97.8922 262.807 98.7245 260.801 100.178 259.638C101.878 258.277 104.259 257.597 107.321 257.597C110.926 257.597 113.341 258.243 114.566 259.536C115.858 260.829 116.539 262.699 116.607 265.148L116.505 265.659Z" fill="#5F00B6"/>
</svg>
