<svg width="28" height="28" viewBox="0 0 28 28" fill="none" xmlns="http://www.w3.org/2000/svg">
<g clip-path="url(#clip0_648_930)">
<path fill-rule="evenodd" clip-rule="evenodd" d="M3 4C3 3.46957 3.21071 2.96086 3.58579 2.58579C3.96086 2.21072 4.46957 2 5 2H7C7.364 2 7.706 2.097 8 2.268C8.30385 2.09201 8.64886 1.99954 9 2H11C11.727 2 12.364 2.388 12.714 2.969C12.924 2.801 13.17 2.673 13.446 2.599L15.378 2.082C15.6317 2.01394 15.8963 1.99653 16.1568 2.03077C16.4172 2.065 16.6684 2.1502 16.8959 2.28151C17.1234 2.41281 17.3228 2.58765 17.4828 2.79604C17.6427 3.00442 17.76 3.24227 17.828 3.496L21.968 18.951C22.0361 19.2047 22.0535 19.4694 22.0192 19.7298C21.985 19.9902 21.8998 20.2414 21.7685 20.4689C21.6372 20.6964 21.4624 20.8958 21.254 21.0558C21.0456 21.2157 20.8077 21.333 20.554 21.401L18.622 21.918C18.3683 21.9861 18.1037 22.0035 17.8432 21.9692C17.5828 21.935 17.3316 21.8498 17.1041 21.7185C16.8766 21.5872 16.6772 21.4124 16.5172 21.204C16.3573 20.9956 16.24 20.7577 16.172 20.504L13 8.663V20C13 20.5304 12.7893 21.0391 12.4142 21.4142C12.0391 21.7893 11.5304 22 11 22H9C8.64886 22.0005 8.30385 21.908 8 21.732C7.69615 21.908 7.35114 22.0005 7 22H5C4.46957 22 3.96086 21.7893 3.58579 21.4142C3.21071 21.0391 3 20.5304 3 20V4ZM5 4H7V20H5V4ZM11 20H9V4H11V20ZM13.963 4.531L15.895 4.014L20.037 19.469L18.105 19.986L13.963 4.531Z" fill="#F0F0F0"/>
</g>
<g clip-path="url(#clip1_648_930)">
<path d="M13.5493 21.8971L14.2605 21.2277L13.5493 21.8971C13.9092 22.2795 14.4107 22.5066 14.9474 22.5066H18.0526V25.8684C18.0526 26.3817 18.244 26.8852 18.6019 27.2655C18.9618 27.6479 19.4633 27.875 20 27.875C20.5367 27.875 21.0382 27.6479 21.3981 27.2655C21.756 26.8852 21.9474 26.3817 21.9474 25.8684V22.5066H25.0526C25.5893 22.5066 26.0908 22.2795 26.4507 21.8971C26.8087 21.5168 27 21.0133 27 20.5C27 19.9867 26.8087 19.4832 26.4507 19.1029C26.0908 18.7205 25.5893 18.4934 25.0526 18.4934H21.9474V15.1316C21.9474 14.6183 21.756 14.1148 21.3981 13.7345C21.0382 13.3521 20.5367 13.125 20 13.125C19.4633 13.125 18.9618 13.3521 18.6019 13.7345C18.244 14.1148 18.0526 14.6183 18.0526 15.1316V18.4934H14.9474C14.4107 18.4934 13.9092 18.7205 13.5493 19.1029L14.2605 19.7723L13.5493 19.1029C13.1913 19.4832 13 19.9867 13 20.5C13 21.0133 13.1913 21.5168 13.5493 21.8971Z" fill="#F0F0F0" stroke="#171717" stroke-width="2"/>
</g>
<defs>
<clipPath id="clip0_648_930">
<rect width="22" height="23" fill="white"/>
</clipPath>
<clipPath id="clip1_648_930">
<rect width="21.6774" height="18.6667" fill="white" transform="translate(6.32275 9.33333)"/>
</clipPath>
</defs>
</svg>
