<svg width="61" height="25" viewBox="0 0 61 25" fill="none" xmlns="http://www.w3.org/2000/svg">
<path d="M15.5665 8.54448C15.5665 8.54448 15.382 8.43592 15.0129 8.21882C14.6438 8.00171 14.1553 7.7629 13.5474 7.50237C12.9395 7.22013 12.2773 6.97046 11.5609 6.75335C10.8444 6.53625 10.1388 6.42769 9.44411 6.42769C8.90135 6.42769 8.45628 6.51454 8.10891 6.68822C7.76154 6.86191 7.58785 7.155 7.58785 7.5675C7.58785 7.95829 7.76154 8.2731 8.10891 8.51191C8.45628 8.75073 8.94477 8.96783 9.57437 9.16323C10.2257 9.35862 10.9964 9.59744 11.8866 9.87968C13.3195 10.3139 14.557 10.8132 15.5991 11.3777C16.6412 11.9422 17.4445 12.6695 18.0089 13.5596C18.5734 14.4281 18.8557 15.5896 18.8557 17.0442C18.8557 18.4337 18.606 19.606 18.1066 20.5613C17.6073 21.4948 16.9343 22.2439 16.0876 22.8083C15.2408 23.3728 14.2964 23.7853 13.2543 24.0458C12.2122 24.2847 11.1484 24.4041 10.0629 24.4041C8.95562 24.4041 7.79411 24.2955 6.57831 24.0784C5.38423 23.8396 4.22271 23.5248 3.09376 23.134C1.96481 22.7215 0.933556 22.2439 0 21.7011L2.73554 16.1323C2.73554 16.1323 2.95264 16.2626 3.38685 16.5231C3.82107 16.7836 4.3964 17.0767 5.11285 17.4024C5.8293 17.7281 6.62173 18.0212 7.49016 18.2817C8.38029 18.5422 9.27043 18.6725 10.1606 18.6725C10.8553 18.6725 11.3329 18.5856 11.5935 18.4119C11.8757 18.2165 12.0168 17.9669 12.0168 17.6629C12.0168 17.207 11.778 16.8596 11.3004 16.6208C10.8227 16.3603 10.1931 16.1215 9.41154 15.9044C8.65167 15.6656 7.80496 15.3942 6.87141 15.0902C5.52535 14.6343 4.41811 14.1241 3.54968 13.5596C2.68126 12.9734 2.0408 12.2896 1.62829 11.508C1.21579 10.7047 1.00954 9.73856 1.00954 8.60961C1.00954 6.89447 1.41119 5.46157 2.21448 4.31091C3.01777 3.16025 4.07074 2.29183 5.37337 1.70564C6.69772 1.09774 8.11976 0.793794 9.63951 0.793794C10.7685 0.793794 11.854 0.934913 12.8961 1.21715C13.9599 1.47768 14.9477 1.80334 15.8596 2.19413C16.7931 2.58492 17.6073 2.954 18.302 3.30137L15.5665 8.54448Z" fill="#F0F0F0"/>
<path d="M39.4739 12.3547C39.4739 10.9435 39.7345 9.56487 40.2555 8.21882C40.7983 6.85105 41.5799 5.61355 42.6003 4.5063C43.6207 3.39906 44.8582 2.51979 46.3128 1.86847C47.7891 1.19544 49.45 0.858925 51.2954 0.858925C53.5098 0.858925 55.4421 1.3257 57.0921 2.25926C58.7421 3.1711 59.9688 4.3869 60.772 5.90664L55.9197 9.35863C55.6375 8.59875 55.225 8.01257 54.6822 7.60007C54.1612 7.18756 53.5858 6.90533 52.9562 6.75335C52.3483 6.57967 51.7513 6.49283 51.1651 6.49283C50.2533 6.49283 49.4608 6.67737 48.7878 7.04644C48.1365 7.39382 47.5937 7.86059 47.1595 8.44678C46.747 9.03297 46.4322 9.68428 46.2151 10.4007C46.0197 11.1172 45.922 11.8336 45.922 12.5501C45.922 13.3534 46.0414 14.1241 46.2802 14.8623C46.519 15.6004 46.8664 16.2626 47.3223 16.8488C47.7782 17.4133 48.3319 17.8583 48.9832 18.184C49.6562 18.5096 50.4052 18.6725 51.2302 18.6725C51.8164 18.6725 52.4135 18.5856 53.0214 18.4119C53.6293 18.2165 54.1829 17.9126 54.6822 17.5001C55.1816 17.0876 55.5615 16.534 55.822 15.8392L61 18.933C60.5441 20.0619 59.7842 21.0281 58.7204 21.8314C57.6566 22.6347 56.4516 23.2534 55.1056 23.6876C53.7595 24.1001 52.4243 24.3064 51.1 24.3064C49.3848 24.3064 47.8108 23.9699 46.3779 23.2968C44.9667 22.6021 43.7401 21.6902 42.698 20.5613C41.6776 19.4106 40.8851 18.1297 40.3207 16.7185C39.7562 15.2856 39.4739 13.831 39.4739 12.3547Z" fill="#F0F0F0"/>
<path d="M29.2198 0C31.0652 1.6133e-07 32.65 0.303949 33.9744 0.911846C35.2987 1.51974 36.3843 2.3556 37.231 3.41942C38.056 4.48324 38.6639 5.69903 39.0547 7.0668C39.4454 8.45628 39.6408 9.91089 39.6408 11.4306V23.3172L33.2905 23.3172V11.4306C33.2905 10.6708 33.2145 9.94345 33.0625 9.24872C32.9106 8.55398 32.6717 7.93522 32.3461 7.39246C32.0204 6.84969 31.6079 6.41548 31.1086 6.08982C30.5875 5.78587 29.9579 5.6339 29.2198 5.6339C28.4599 5.6339 27.8194 5.78587 27.2984 6.08982C26.7773 6.41548 26.3648 6.84969 26.0609 7.39246C25.7352 7.95693 25.4964 8.58654 25.3444 9.28128C25.1924 9.97602 25.1165 10.6925 25.1165 11.4306L25.1164 23.3172H18.7661V11.4306C18.7661 9.82405 18.9832 8.32601 19.4174 6.93654C19.8299 5.54706 20.4595 4.33126 21.3062 3.28916C22.153 2.24705 23.2385 1.4329 24.5628 0.846713C25.8655 0.282237 27.4178 -1.57534e-07 29.2198 0Z" fill="#F0F0F0"/>
<path fill-rule="evenodd" clip-rule="evenodd" d="M30.616 17.6996H23.4922V11.1864H30.616V17.6996Z" fill="#F0F0F0"/>
</svg>
