<svg width="975" height="259" viewBox="0 0 975 259" fill="none" xmlns="http://www.w3.org/2000/svg">
<path fill-rule="evenodd" clip-rule="evenodd" d="M317.473 254.157L216.455 254.157V230.351C212.442 234.544 207.73 238.235 202.321 241.422C182.233 253.141 153.893 259 117.303 259C81.6699 259 53.211 251.407 31.9266 236.221C10.6422 221.035 0 200.229 0 173.803V167.704C0 141.039 10.4628 120.113 31.3885 104.927C52.3142 89.7412 80.6535 82.1482 116.407 82.1482C152.518 82.1482 180.618 88.3661 200.707 100.802C206.797 104.536 212.046 108.945 216.455 114.031V0H317.817V113.178C321.165 105.406 327.801 98.5898 337.726 92.7306C347.77 86.7518 361.521 83.7625 378.979 83.7625C399.905 83.7625 416.586 88.9042 429.022 99.1877C435.795 104.735 440.741 112.092 443.86 121.259C448.534 115.364 454.285 110.039 461.113 105.286C482.756 90.1 512.112 82.5069 549.18 82.5069C584.933 82.5069 612.615 90.1597 632.225 105.465C636.139 108.496 639.661 111.726 642.794 115.156V0H746.645V88.964H830.931L852.454 144.566C853.052 145.882 853.71 147.735 854.427 150.127C855.145 152.399 855.802 155.508 856.4 159.454H857.118C857.716 155.508 858.373 152.399 859.091 150.127C859.808 147.735 860.466 145.882 861.064 144.566L884.56 88.964H974.78L903.932 254.157H794.879L746.645 144.469V254.157H642.794V228.577C637.575 234.576 631.541 239.635 624.692 243.754C607.593 253.918 583.02 259 550.974 259C512.232 259 482.159 251.527 460.755 236.58C455.905 233.166 451.605 229.446 447.855 225.419V254.157L366.145 254.157L345.266 207.278L345.239 207.349L323.844 159.156L323.836 159.162L317.473 144.875V254.157ZM642.794 177.928V177.932H643.483V226.604L562.655 190.605C559.528 192.198 555.455 192.994 550.436 192.994C543.979 192.994 539.017 191.679 535.549 189.048C532.792 186.882 531.17 183.175 530.683 177.928H642.794ZM563.709 162.144H530.622C530.993 157.133 532.456 153.605 535.011 151.562C538 149.17 542.185 147.974 547.566 147.974C553.904 147.974 558.149 149.11 560.301 151.382C562.573 153.654 563.769 156.943 563.888 161.247L563.709 162.144ZM216.455 165.014H135.778V163.22C135.778 159.274 134.522 156.105 132.011 153.714C129.62 151.322 125.733 150.127 120.352 150.127C114.613 150.127 110.308 151.322 107.438 153.714C104.569 155.986 103.134 159.274 103.134 163.579V177.39C103.134 182.651 104.509 186.418 107.259 188.69C110.009 190.962 114.374 192.098 120.352 192.098C125.973 192.098 129.919 191.081 132.19 189.048C132.279 188.969 132.367 188.889 132.452 188.809L216.456 226.61V177.02H216.455V165.014Z" fill="#313131"/>
</svg>
