<svg width="83" height="27" viewBox="0 0 83 27" fill="none" xmlns="http://www.w3.org/2000/svg">
<path d="M56.0713 10.7469L40.7255 10.7469L40.7255 5.90234L56.0713 5.90234L56.0713 10.7469Z" fill="#5C09A7"/>
<path d="M56.0713 18.5916L40.7255 18.5916L40.7255 13.7471L56.0713 13.7471L56.0713 18.5916Z" fill="#5C09A7"/>
<path d="M56.0713 26.4364L40.7255 26.4364L40.7255 21.5918L56.0713 21.5918L56.0713 26.4364Z" fill="#5C09A7"/>
<path d="M0 16.5995C0 14.6352 0.424961 12.8881 1.27488 11.3583C2.12481 9.80952 3.30525 8.61018 4.81623 7.76026C6.34609 6.89145 8.07426 6.45705 10.0008 6.45705C12.3616 6.45705 14.3826 7.08032 16.0635 8.32687C17.7445 9.57343 18.8683 11.2733 19.4349 13.4264H14.1087C13.7121 12.5954 13.1455 11.9627 12.4089 11.5282C11.6912 11.0938 10.8696 10.8766 9.94409 10.8766C8.452 10.8766 7.24323 11.396 6.31776 12.4348C5.39228 13.4736 4.92955 14.8618 4.92955 16.5995C4.92955 18.3371 5.39228 19.7253 6.31776 20.7641C7.24323 21.8029 8.452 22.3223 9.94409 22.3223C10.8696 22.3223 11.6912 22.1051 12.4089 21.6707C13.1455 21.2362 13.7121 20.6035 14.1087 19.7725H19.4349C18.8683 21.9256 17.7445 23.6255 16.0635 24.872C14.3826 26.0997 12.3616 26.7135 10.0008 26.7135C8.07426 26.7135 6.34609 26.2886 4.81623 25.4386C3.30525 24.5698 2.12481 23.3705 1.27488 21.8406C0.424961 20.3108 0 18.5637 0 16.5995Z" fill="#313131"/>
<path d="M32.1191 10.5933C33.9323 10.5933 35.3866 11.1977 36.482 12.4065C37.5775 13.5964 38.1252 15.2396 38.1252 17.3361V26.5719H33.309V17.9877C33.309 16.93 33.0351 16.1084 32.4874 15.5229C31.9397 14.9374 31.2031 14.6446 30.2776 14.6446C29.3521 14.6446 28.6155 14.9374 28.0678 15.5229C27.5201 16.1084 27.2462 16.93 27.2462 17.9877V26.5719H22.4016V5.60713H27.2462V12.8881C27.7373 12.1893 28.4078 11.6321 29.2577 11.2166C30.1076 10.8011 31.0614 10.5933 32.1191 10.5933Z" fill="#313131"/>
<path d="M63.794 0V26.5719H58.9494V0H63.794Z" fill="#313131"/>
<path d="M74.4158 22.039L77.8438 10.7633H83L77.3905 26.5719H71.4127L65.8032 10.7633H70.9878L74.4158 22.039Z" fill="#313131"/>
</svg>
